<svg width="115" height="90" viewBox="0 0 115 90" fill="none" xmlns="http://www.w3.org/2000/svg">
<path d="M0 0H115V69.15C115 78.5781 115 83.2921 112.071 86.2211C109.142 89.15 104.428 89.15 95 89.15H20C10.5719 89.15 5.85786 89.15 2.92893 86.2211C0 83.2921 0 78.5781 0 69.15V0Z" fill="#FBFDFF"/>
<path fill-rule="evenodd" clip-rule="evenodd" d="M60.5863 27.1467V34.0488L66.2206 28.3484L54.7444 16.8296L43.3202 28.3462L49.0396 34.1088V27.2843C49.2625 27.4155 49.5219 27.4908 49.7984 27.4908C50.0751 27.4908 50.3345 27.4157 50.5572 27.2849V35.9473H50.555C50.555 36.1416 50.4807 36.336 50.3321 36.4837C50.0359 36.7783 49.5567 36.777 49.2621 36.4808L41.718 28.8798C41.4247 28.585 41.4244 28.1079 41.718 27.8127L54.2098 15.2201C54.506 14.9255 54.9852 14.9268 55.2798 15.223L67.823 27.8127C68.115 28.1062 68.117 28.5809 67.826 28.8768L60.4057 36.3839C60.2665 36.5476 60.0592 36.6515 59.8275 36.6515C59.4085 36.6515 59.0687 36.3117 59.0687 35.8927V27.1476C59.2914 27.2783 59.5508 27.3532 59.8275 27.3532C60.104 27.3532 60.3633 27.2778 60.5863 27.1467ZM58.0575 24.2725V38.4373C58.0575 38.8562 57.7177 39.1961 57.2987 39.1961C56.8797 39.1961 56.5399 38.8562 56.5399 38.4373V24.2723C56.7626 24.4034 57.022 24.4787 57.2987 24.4787C57.5754 24.4787 57.8348 24.4035 58.0575 24.2725ZM55.5274 21.2681L55.5438 40.948C55.5438 41.3653 55.2054 41.7038 54.788 41.7038C54.3706 41.7038 54.0322 41.3653 54.0322 40.948L54.0158 21.2687C54.2377 21.3983 54.4956 21.4726 54.7706 21.4726C55.0465 21.4726 55.3053 21.3981 55.5274 21.2681ZM53.0288 24.1354V38.4376C53.0288 38.8566 52.689 39.1964 52.27 39.1964C51.851 39.1964 51.5112 38.8566 51.5112 38.4376V24.1352C51.7341 24.2665 51.9936 24.3419 52.27 24.3419C52.5465 24.3419 52.8059 24.2665 53.0288 24.1354Z" fill="#00509E"/>
<path fill-rule="evenodd" clip-rule="evenodd" d="M50.7375 25.9892C50.7375 26.5078 50.317 26.9283 49.7985 26.9283C49.2798 26.9283 48.8594 26.5078 48.8594 25.9892C48.8594 25.4705 49.2798 25.0501 49.7985 25.0501C50.317 25.0501 50.7375 25.4705 50.7375 25.9892ZM60.7665 25.8519C60.7665 26.3704 60.3462 26.7908 59.8277 26.7908C59.3092 26.7908 58.8889 26.3704 58.8889 25.8519C58.8889 25.3332 59.3092 24.9129 59.8277 24.9129C60.3462 24.9129 60.7665 25.3332 60.7665 25.8519ZM58.2379 22.9774C58.2379 23.496 57.8175 23.9164 57.299 23.9164C56.7805 23.9164 56.3602 23.496 56.3602 22.9774C56.3602 22.4587 56.7805 22.0383 57.299 22.0383C57.8175 22.0383 58.2379 22.4587 58.2379 22.9774ZM55.7095 19.9711C55.7095 20.4897 55.2891 20.9101 54.7706 20.9101C54.2521 20.9101 53.8318 20.4897 53.8318 19.9711C53.8318 19.4526 54.2521 19.0322 54.7706 19.0322C55.2891 19.0322 55.7095 19.4526 55.7095 19.9711ZM53.2092 22.8404C53.2092 23.359 52.7888 23.7793 52.2702 23.7793C51.7518 23.7793 51.3314 23.359 51.3314 22.8404C51.3314 22.3219 51.7518 21.9016 52.2702 21.9016C52.7888 21.9016 53.2092 22.3219 53.2092 22.8404Z" fill="#78B71B"/>
<path fill-rule="evenodd" clip-rule="evenodd" d="M15.5672 64.6007C15.2697 64.8984 14.916 65.0471 14.5068 65.0471C14.0976 65.0471 13.7439 64.8984 13.4465 64.6007C13.1492 64.3033 13 63.9498 13 63.5403V46.1845C13 45.7757 13.1492 45.422 13.4465 45.1242C13.7439 44.8271 14.0976 44.6779 14.5068 44.6779C15.4925 44.6779 16.2459 45.1151 16.767 45.9893L24.6911 59.8572C24.6911 59.876 24.7102 59.8852 24.7476 59.8852C24.7658 59.8852 24.7752 59.876 24.7752 59.8572V46.1845C24.7752 45.7757 24.9235 45.422 25.2218 45.1242C25.5191 44.8271 25.8729 44.6779 26.2821 44.6779C26.6913 44.6779 27.044 44.8271 27.3424 45.1242C27.6397 45.422 27.7888 45.7757 27.7888 46.1845V63.5403C27.7888 63.9498 27.6397 64.3033 27.3424 64.6007C27.044 64.8984 26.6913 65.0471 26.2821 65.0471C25.2953 65.0471 24.542 64.6103 24.0219 63.7356L16.0701 49.8679C16.0701 49.8495 16.0604 49.84 16.0413 49.84C16.0231 49.84 16.0136 49.8495 16.0136 49.8679V63.5403C16.0136 63.9498 15.8645 64.3033 15.5672 64.6007ZM84.3752 64.6007C84.0769 64.8984 83.7145 65.0471 83.2863 65.0471C82.8588 65.0471 82.4956 64.8984 82.1982 64.6007C81.9008 64.3033 81.7517 63.9407 81.7517 63.5126V46.2125C81.7517 45.7849 81.9008 45.422 82.1982 45.1242C82.4956 44.8271 82.8588 44.6779 83.2863 44.6779C83.7145 44.6779 84.0769 44.8271 84.3752 45.1242C84.6726 45.422 84.8217 45.7849 84.8217 46.2125V52.7418C84.8217 52.9093 84.9049 52.993 85.0722 52.993H93.2201C93.3873 52.993 93.4715 52.9093 93.4715 52.7418V46.2125C93.4715 45.7849 93.6198 45.422 93.918 45.1242C94.2153 44.8271 94.5778 44.6779 95.006 44.6779C95.4334 44.6779 95.7957 44.8271 96.0941 45.1242C96.3914 45.422 96.5406 45.7849 96.5406 46.2125V63.5126C96.5406 63.9407 96.3914 64.3033 96.0941 64.6007C95.7957 64.8984 95.4334 65.0471 95.006 65.0471C94.5778 65.0471 94.2153 64.8984 93.918 64.6007C93.6198 64.3033 93.4715 63.9407 93.4715 63.5126V55.6438C93.4715 55.4764 93.3873 55.3925 93.2201 55.3925H85.0722C84.9049 55.3925 84.8217 55.4764 84.8217 55.6438V63.5126C84.8217 63.9407 84.6726 64.3033 84.3752 64.6007ZM71.6503 55.9786C69.5297 55.2532 67.9989 54.3839 67.06 53.3697C66.1203 52.356 65.6507 51.1331 65.6507 49.7003C65.6507 48.0639 66.172 46.7707 67.2139 45.8221C68.2553 44.8734 69.6874 44.3987 71.5108 44.3987C72.9527 44.3987 74.2493 44.5444 75.401 44.8348C75.3058 44.9019 75.2168 44.977 75.1348 45.059C74.7685 45.4254 74.5417 45.9316 74.5417 46.4906C74.5417 46.7622 74.5954 47.0215 74.693 47.2587C73.7336 46.9892 72.7659 46.8544 71.79 46.8544C70.785 46.8544 70.0135 47.1055 69.4732 47.6078C68.9339 48.1099 68.6644 48.8076 68.6644 49.7003C68.6644 50.4259 68.9158 51.0816 69.4177 51.6676C69.9198 52.2538 70.6634 52.7142 71.6503 53.049C74.1057 53.8678 75.812 54.7788 76.7702 55.7834C77.7281 56.7878 78.2071 58.0621 78.2071 59.6058C78.2071 61.4853 77.6307 62.9081 76.4776 63.8751C75.3236 64.8429 73.6216 65.3262 71.3712 65.3262C70.0967 65.3262 68.9274 65.158 67.8628 64.8225C68.0211 64.7324 68.166 64.6215 68.294 64.4936C68.6603 64.1273 68.8871 63.621 68.8871 63.062C68.8871 62.8664 68.8591 62.6772 68.8072 62.4979C69.5336 62.7093 70.2954 62.815 71.092 62.815C73.789 62.815 75.1382 61.7454 75.1382 59.6058C75.1382 58.7878 74.8734 58.09 74.3425 57.5134C73.813 56.937 72.9151 56.4251 71.6503 55.9786ZM52.9007 64.6007C52.6033 64.8984 52.24 65.0471 51.8126 65.0471C51.3844 65.0471 51.022 64.8984 50.7247 64.6007C50.4263 64.3033 50.2781 63.9407 50.2781 63.5126V46.2125C50.2781 45.7849 50.4263 45.422 50.7247 45.1242C51.022 44.8271 51.3844 44.6779 51.8126 44.6779C52.24 44.6779 52.6033 44.8271 52.9007 45.1242C53.1981 45.422 53.3472 45.7849 53.3472 46.2125V53.5791C53.3472 53.5977 53.3568 53.6069 53.3749 53.6069L53.4314 53.5791L59.8763 45.8776C60.5646 45.0781 61.429 44.6779 62.4711 44.6779H62.9175C63.2149 44.6779 63.4339 44.8173 63.5734 45.0964C63.713 45.3754 63.6805 45.6362 63.4759 45.8776L56.3052 54.2766C56.2115 54.4068 56.2019 54.5278 56.2766 54.6392L63.7828 63.8196C63.9874 64.08 64.02 64.3497 63.8804 64.6286C63.7408 64.9076 63.5133 65.0471 63.1968 65.0471H62.7503C61.69 65.0471 60.8343 64.6382 60.1831 63.8196L53.4314 55.309C53.4122 55.2907 53.3931 55.281 53.3749 55.281C53.3568 55.281 53.3472 55.2907 53.3472 55.309V63.5126C53.3472 63.9407 53.1981 64.3033 52.9007 64.6007ZM32.1697 65.0471C31.7786 65.0471 31.467 64.8894 31.2347 64.5727C31.0014 64.2566 30.9507 63.9127 31.0807 63.5403L37.0524 46.1845C37.2007 45.7383 37.4713 45.3754 37.8614 45.0964C38.2524 44.8173 38.6797 44.6779 39.1454 44.6779H39.3127C39.7955 44.6779 40.2286 44.8173 40.6102 45.0964C40.9906 45.3754 41.2564 45.7383 41.4047 46.1845L47.3764 63.5403C47.5065 63.9127 47.4548 64.2566 47.2225 64.5727C46.9901 64.8894 46.6784 65.0471 46.2884 65.0471H46.1764C45.7108 65.0471 45.2883 64.9076 44.9068 64.6286C44.5253 64.3497 44.2605 63.9868 44.1114 63.5403L42.9956 59.8572C42.9764 59.7085 42.8741 59.6338 42.6886 59.6338H35.6575C35.4892 59.6338 35.387 59.7085 35.3507 59.8572L34.2339 63.5403C34.1039 63.9868 33.8477 64.3497 33.4671 64.6286C33.0857 64.9076 32.6525 65.0471 32.1697 65.0471ZM39.1454 47.4961L36.215 57.011C36.1968 57.067 36.2054 57.1184 36.2427 57.1645C36.28 57.2111 36.3268 57.2343 36.3823 57.2343H41.963C42.0194 57.2343 42.0654 57.2111 42.1025 57.1645C42.1399 57.1184 42.1485 57.067 42.1303 57.011L39.2008 47.4961C39.2008 47.4776 39.1912 47.468 39.1731 47.468C39.154 47.468 39.1454 47.4776 39.1454 47.4961Z" fill="#00509E"/>
<path fill-rule="evenodd" clip-rule="evenodd" d="M68.1185 63.0617C68.1185 63.7553 67.5561 64.3176 66.8625 64.3176C66.1689 64.3176 65.6067 63.7553 65.6067 63.0617C65.6067 62.3681 66.1689 61.8057 66.8625 61.8057C67.5561 61.8057 68.1185 62.3681 68.1185 63.0617ZM77.8227 46.4904C77.8227 47.1841 77.2603 47.7465 76.5667 47.7465C75.873 47.7465 75.3106 47.1841 75.3106 46.4904C75.3106 45.7967 75.873 45.2344 76.5667 45.2344C77.2603 45.2344 77.8227 45.7967 77.8227 46.4904Z" fill="#78B71B"/>
<path fill-rule="evenodd" clip-rule="evenodd" d="M14.7217 67.1753H94.8187C94.9412 66.8324 95.2688 66.5869 95.6539 66.5869C96.1434 66.5869 96.5406 66.9841 96.5406 67.4736C96.5406 67.9632 96.1434 68.3604 95.6539 68.3604C95.2688 68.3604 94.9412 68.1149 94.8187 67.772H14.7217C14.5991 68.1149 14.2716 68.3604 13.8865 68.3604C13.397 68.3604 13 67.9632 13 67.4736C13 66.9841 13.397 66.5869 13.8865 66.5869C14.2716 66.5869 14.5991 66.8324 14.7217 67.1753Z" fill="#78B71B"/>
<path fill-rule="evenodd" clip-rule="evenodd" d="M99.8378 39.7793C100.369 39.7793 100.887 39.9152 101.394 40.1886C101.899 40.4606 102.294 40.8514 102.576 41.3582C102.858 41.8665 103 42.396 103 42.9459C103 43.4913 102.861 44.0166 102.582 44.5191C102.304 45.023 101.915 45.4137 101.413 45.6915C100.91 45.9706 100.385 46.1095 99.8378 46.1095C99.2895 46.1095 98.7642 45.9706 98.2617 45.6915C97.7592 45.4137 97.3683 45.023 97.0892 44.5191C96.8101 44.0166 96.6698 43.4913 96.6698 42.9459C96.6698 42.396 96.8115 41.8665 97.0949 41.3582C97.3799 40.8514 97.775 40.4606 98.2803 40.1886C98.7871 39.9152 99.3053 39.7793 99.8378 39.7793ZM99.8378 40.3032C99.3927 40.3032 98.9588 40.4177 98.5379 40.6453C98.1171 40.8729 97.7878 41.1994 97.5502 41.6231C97.3127 42.0468 97.1938 42.4876 97.1938 42.9459C97.1938 43.4025 97.3112 43.839 97.5444 44.2571C97.7778 44.6751 98.1043 45.0015 98.5237 45.2349C98.9432 45.4681 99.3811 45.5855 99.8378 45.5855C100.293 45.5855 100.731 45.4681 101.151 45.2349C101.57 45.0015 101.896 44.6751 102.128 44.2571C102.36 43.839 102.476 43.4025 102.476 42.9459C102.476 42.4876 102.357 42.0468 102.121 41.6231C101.885 41.1994 101.556 40.8729 101.133 40.6453C100.711 40.4177 100.279 40.3032 99.8378 40.3032ZM98.4478 44.6923V41.291H99.6188C100.02 41.291 100.309 41.3225 100.488 41.3854C100.668 41.4484 100.81 41.5573 100.917 41.7147C101.023 41.8707 101.076 42.0367 101.076 42.2128C101.076 42.4604 100.987 42.6781 100.808 42.8614C100.631 43.046 100.395 43.149 100.1 43.172C100.22 43.2221 100.317 43.2822 100.389 43.3523C100.526 43.4854 100.694 43.7102 100.893 44.0265L101.308 44.6923H100.641L100.337 44.1569C100.1 43.7346 99.9066 43.4697 99.7605 43.3637C99.6604 43.2865 99.5143 43.2479 99.321 43.2493H98.9976V44.6923H98.4478ZM98.9976 42.7769H99.6646C99.9838 42.7769 100.201 42.7296 100.317 42.6351C100.433 42.5406 100.492 42.4147 100.492 42.2601C100.492 42.1599 100.463 42.0697 100.407 41.9909C100.352 41.9107 100.274 41.8521 100.176 41.8134C100.075 41.7748 99.8922 41.7547 99.623 41.7547H98.9976V42.7769Z" fill="#78B71B"/>
<path fill-rule="evenodd" clip-rule="evenodd" d="M15.9428 71.1527C16.0642 71.1527 16.0908 71.0706 16.0908 70.9064C16.0908 70.7422 16.0642 70.66 15.9428 70.66H13.1498C13.0284 70.66 13.0018 70.7422 13.0018 70.9064C13.0018 71.0706 13.0284 71.1527 13.1498 71.1527H14.2921V73.7706C14.2921 73.9439 14.3793 73.9849 14.5425 73.9849C14.7095 73.9849 14.7968 73.9439 14.7968 73.7706V71.1527H15.9428ZM19.5984 72.5848C19.7199 72.5848 19.7465 72.5027 19.7465 72.3385C19.7465 72.1743 19.7199 72.0922 19.5984 72.0922H17.1357V71.5084C17.1357 71.3077 17.3292 71.1527 17.7732 71.1527H18.3234C18.441 71.1527 18.4677 71.0706 18.4677 70.9064C18.4677 70.7422 18.441 70.66 18.3234 70.66H17.758C17.0105 70.66 16.6348 70.9383 16.6348 71.5084V73.1183C16.6348 73.6839 17.0105 73.9667 17.758 73.9667H19.5871C19.7085 73.9667 19.735 73.88 19.735 73.7204C19.735 73.5562 19.7085 73.4741 19.5871 73.4741H17.7732C17.3292 73.4741 17.1357 73.3145 17.1357 73.1183V72.5848H19.5984ZM23.4362 73.9667C23.5577 73.9667 23.5804 73.88 23.5804 73.7204C23.5804 73.5562 23.5577 73.4741 23.4362 73.4741H21.5882C21.1442 73.4741 20.9507 73.3145 20.9507 73.1183V71.5084C20.9507 71.3077 21.1442 71.1527 21.5882 71.1527H23.4324C23.5538 71.1527 23.5804 71.0706 23.5804 70.9064C23.5804 70.7422 23.5538 70.66 23.4324 70.66H21.573C20.8255 70.66 20.4498 70.9383 20.4498 71.5084V73.1183C20.4498 73.6839 20.8255 73.9667 21.573 73.9667H23.4362ZM24.8188 70.8562C24.8188 70.6829 24.7315 70.6418 24.5645 70.6418C24.4014 70.6418 24.3142 70.6829 24.3142 70.8562V73.7706C24.3142 73.9439 24.4014 73.9849 24.5645 73.9849C24.7315 73.9849 24.8188 73.9439 24.8188 73.7706V72.5848H27.2626V73.7706C27.2626 73.9439 27.3499 73.9849 27.5169 73.9849C27.68 73.9849 27.7673 73.9439 27.7673 73.7706V70.8562C27.7673 70.6829 27.68 70.6418 27.5169 70.6418C27.3499 70.6418 27.2626 70.6829 27.2626 70.8562V72.0922H24.8188V70.8562ZM31.7189 73.9849C31.8935 73.9849 31.9808 73.9485 31.9808 73.7706V70.8562C31.9808 70.6829 31.8935 70.6418 31.7266 70.6418C31.5634 70.6418 31.4761 70.6829 31.4761 70.8562V73.1913L29.1499 70.8106C29.0323 70.692 28.9602 70.6418 28.7932 70.6418C28.6377 70.6418 28.5542 70.6875 28.5542 70.8562V73.7706C28.5542 73.9439 28.6414 73.9849 28.8046 73.9849C28.9716 73.9849 29.0588 73.9439 29.0588 73.7706V71.44L31.4191 73.8298C31.552 73.9621 31.5824 73.9849 31.7189 73.9849ZM34.961 73.9667C35.7085 73.9667 36.0843 73.6839 36.0843 73.1183V71.5084C36.0843 70.9383 35.7085 70.66 34.961 70.66H33.8567C33.1092 70.66 32.7335 70.9383 32.7335 71.5084V73.1183C32.7335 73.6839 33.1092 73.9667 33.8567 73.9667H34.961ZM34.9458 73.4741H33.8719C33.4279 73.4741 33.2344 73.3145 33.2344 73.1183V71.5084C33.2344 71.3077 33.4279 71.1527 33.8719 71.1527H34.9458C35.3898 71.1527 35.5833 71.3077 35.5833 71.5084V73.1183C35.5833 73.3145 35.3898 73.4741 34.9458 73.4741ZM39.8195 73.9667C39.941 73.9667 39.9638 73.88 39.9638 73.7158C39.9638 73.5562 39.941 73.4741 39.8195 73.4741H37.9602C37.5162 73.4741 37.3264 73.3145 37.3264 73.1183V70.8562C37.3264 70.6829 37.2392 70.6418 37.0721 70.6418C36.909 70.6418 36.8217 70.6829 36.8217 70.8562V73.1183C36.8217 73.6839 37.1974 73.9667 37.9449 73.9667H39.8195ZM42.7353 73.9667C43.4828 73.9667 43.8585 73.6839 43.8585 73.1183V71.5084C43.8585 70.9383 43.4828 70.66 42.7353 70.66H41.631C40.8834 70.66 40.5077 70.9383 40.5077 71.5084V73.1183C40.5077 73.6839 40.8834 73.9667 41.631 73.9667H42.7353ZM42.72 73.4741H41.6462C41.2021 73.4741 41.0087 73.3145 41.0087 73.1183V71.5084C41.0087 71.3077 41.2021 71.1527 41.6462 71.1527H42.72C43.1641 71.1527 43.3575 71.3077 43.3575 71.5084V73.1183C43.3575 73.3145 43.1641 73.4741 42.72 73.4741ZM47.9771 72.3066C47.9771 72.1287 47.886 72.0922 47.7191 72.0922C47.552 72.0922 47.4686 72.1287 47.4686 72.3066V73.1183C47.4686 73.3145 47.2788 73.4741 46.8349 73.4741H45.7154C45.2714 73.4741 45.0779 73.3145 45.0779 73.1183V71.5084C45.0779 71.3077 45.2714 71.1527 45.7154 71.1527H46.2353C46.3567 71.1527 46.3833 71.0706 46.3833 70.9064C46.3833 70.7422 46.3567 70.66 46.2353 70.66H45.7003C44.9527 70.66 44.577 70.9383 44.577 71.5084V73.1183C44.577 73.6839 44.9527 73.9667 45.7003 73.9667H46.85C47.5824 73.9667 47.9771 73.6976 47.9771 73.1183V72.3066ZM49.4508 72.5985V73.7706C49.4508 73.9439 49.5381 73.9849 49.7012 73.9849C49.8682 73.9849 49.9555 73.9439 49.9555 73.7706V72.5985L51.3254 71.0067C51.3747 70.9519 51.405 70.8836 51.405 70.8242C51.405 70.7239 51.3215 70.6418 51.1318 70.6418C51.0218 70.6418 50.9686 70.6692 50.9193 70.7285L49.705 72.1515L48.4869 70.7285C48.4338 70.6692 48.3844 70.6418 48.2744 70.6418C48.0808 70.6418 48.0012 70.7285 48.0012 70.8242C48.0012 70.8836 48.0315 70.9519 48.0808 71.0067L49.4508 72.5985ZM56.338 72.5346C56.782 72.5346 56.949 72.6942 56.949 72.8904V73.1183C56.949 73.319 56.782 73.4741 56.338 73.4741H54.4672C54.3458 73.4741 54.3193 73.5562 54.3193 73.7204C54.3193 73.8846 54.3458 73.9667 54.4672 73.9667H56.3267C57.0742 73.9667 57.4499 73.6885 57.4499 73.1183V72.8904C57.4499 72.3248 57.0742 72.042 56.3267 72.042H55.4311C54.9871 72.042 54.8201 71.8823 54.8201 71.6863V71.5084C54.8201 71.3077 54.9871 71.1527 55.4311 71.1527H55.822C55.9434 71.1527 55.9699 71.0706 55.9699 70.9064C55.9699 70.7422 55.9434 70.66 55.822 70.66H55.4425C54.6949 70.66 54.3193 70.9383 54.3193 71.5084V71.6863C54.3193 72.2518 54.6949 72.5346 55.4425 72.5346H56.338ZM60.358 73.9667C61.1055 73.9667 61.4812 73.6839 61.4812 73.1183V71.5084C61.4812 70.9383 61.1055 70.66 60.358 70.66H59.2537C58.5061 70.66 58.1305 70.9383 58.1305 71.5084V73.1183C58.1305 73.6839 58.5061 73.9667 59.2537 73.9667H60.358ZM60.3428 73.4741H59.2689C58.8249 73.4741 58.6314 73.3145 58.6314 73.1183V71.5084C58.6314 71.3077 58.8249 71.1527 59.2689 71.1527H60.3428C60.7868 71.1527 60.9803 71.3077 60.9803 71.5084V73.1183C60.9803 73.3145 60.7868 73.4741 60.3428 73.4741ZM65.2165 73.9667C65.338 73.9667 65.3607 73.88 65.3607 73.7158C65.3607 73.5562 65.338 73.4741 65.2165 73.4741H63.3571C62.9132 73.4741 62.7234 73.3145 62.7234 73.1183V70.8562C62.7234 70.6829 62.6362 70.6418 62.4692 70.6418C62.306 70.6418 62.2187 70.6829 62.2187 70.8562V73.1183C62.2187 73.6839 62.5944 73.9667 63.3419 73.9667H65.2165ZM68.2157 73.9667C68.9633 73.9667 69.339 73.6839 69.339 73.1183V70.8562C69.339 70.6829 69.2517 70.6418 69.0885 70.6418C68.9216 70.6418 68.8342 70.6829 68.8342 70.8562V73.1183C68.8342 73.3145 68.6445 73.4741 68.2006 73.4741H67.0622C66.6181 73.4741 66.4284 73.3145 66.4284 73.1183V70.8562C66.4284 70.6829 66.3411 70.6418 66.1741 70.6418C66.011 70.6418 65.9237 70.6829 65.9237 70.8562V73.1183C65.9237 73.6839 66.2994 73.9667 67.0469 73.9667H68.2157ZM72.9188 71.1527C73.0402 71.1527 73.0667 71.0706 73.0667 70.9064C73.0667 70.7422 73.0402 70.66 72.9188 70.66H70.1258C70.0044 70.66 69.9778 70.7422 69.9778 70.9064C69.9778 71.0706 70.0044 71.1527 70.1258 71.1527H71.268V73.7706C71.268 73.9439 71.3553 73.9849 71.5185 73.9849C71.6854 73.9849 71.7727 73.9439 71.7727 73.7706V71.1527H72.9188ZM74.2254 70.8562C74.2254 70.6829 74.1382 70.6418 73.9712 70.6418C73.808 70.6418 73.7208 70.6829 73.7208 70.8562V73.7706C73.7208 73.9439 73.808 73.9849 73.9712 73.9849C74.1382 73.9849 74.2254 73.9439 74.2254 73.7706V70.8562ZM77.2057 73.9667C77.9532 73.9667 78.3289 73.6839 78.3289 73.1183V71.5084C78.3289 70.9383 77.9532 70.66 77.2057 70.66H76.1014C75.3538 70.66 74.9781 70.9383 74.9781 71.5084V73.1183C74.9781 73.6839 75.3538 73.9667 76.1014 73.9667H77.2057ZM77.1904 73.4741H76.1165C75.6725 73.4741 75.479 73.3145 75.479 73.1183V71.5084C75.479 71.3077 75.6725 71.1527 76.1165 71.1527H77.1904C77.6344 71.1527 77.8279 71.3077 77.8279 71.5084V73.1183C77.8279 73.3145 77.6344 73.4741 77.1904 73.4741ZM82.2463 73.9849C82.4209 73.9849 82.5082 73.9485 82.5082 73.7706V70.8562C82.5082 70.6829 82.4209 70.6418 82.2539 70.6418C82.0908 70.6418 82.0034 70.6829 82.0034 70.8562V73.1913L79.6773 70.8106C79.5597 70.692 79.4876 70.6418 79.3206 70.6418C79.165 70.6418 79.0816 70.6875 79.0816 70.8562V73.7706C79.0816 73.9439 79.1688 73.9849 79.3319 73.9849C79.499 73.9849 79.5862 73.9439 79.5862 73.7706V71.44L81.9465 73.8298C82.0794 73.9621 82.1097 73.9849 82.2463 73.9849ZM88.5909 73.9667C88.7124 73.9667 88.7352 73.88 88.7352 73.7158C88.7352 73.5562 88.7124 73.4741 88.5909 73.4741H86.7316C86.2876 73.4741 86.0978 73.3145 86.0978 73.1183V70.8562C86.0978 70.6829 86.0106 70.6418 85.8436 70.6418C85.6804 70.6418 85.5931 70.6829 85.5931 70.8562V73.1183C85.5931 73.6839 85.9688 73.9667 86.7163 73.9667H88.5909ZM92.296 73.9667C92.4174 73.9667 92.4402 73.88 92.4402 73.7158C92.4402 73.5562 92.4174 73.4741 92.296 73.4741H90.4365C89.9925 73.4741 89.8028 73.3145 89.8028 73.1183V70.8562C89.8028 70.6829 89.7155 70.6418 89.5486 70.6418C89.3854 70.6418 89.2981 70.6829 89.2981 70.8562V73.1183C89.2981 73.6839 89.6738 73.9667 90.4214 73.9667H92.296ZM93.0942 70.8699V73.7706C93.0942 73.9439 93.1814 73.9849 93.3446 73.9849C93.5116 73.9849 93.5988 73.9439 93.5988 73.7706V72.7991H95.4241C96.111 72.7991 96.5398 72.5072 96.5398 72.0602V71.3989C96.5398 70.9519 96.111 70.66 95.4241 70.66H93.2726C93.1511 70.66 93.0942 70.7285 93.0942 70.8699ZM95.3786 71.1527C95.8947 71.1527 96.0389 71.2804 96.0389 71.4446V72.0147C96.0389 72.1789 95.8947 72.3066 95.3786 72.3066H93.5988V71.1527H95.3786Z" fill="#00509E"/>
</svg>
