<svg xmlns="http://www.w3.org/2000/svg" width="108" height="70" viewBox="0 0 108 70" fill="none"><path d="M16.2146 25.0037L16.4265 20.2846H16.1731L11.4315 28.2063H10.4159L5.46014 20.2846H5.25057L5.50388 24.5281V56.7022H0V10.8464H5.88386L10.9663 19.2438H11.1344L16.1731 10.8464H22.0156V41.1509H16.2146V25.0037Z" fill="white"></path><path d="M39.9529 30.0313L31.1513 30.9568L29.8018 37.8447L24.0308 38.4522L30.5134 7.30238L36.2844 6.69482L48.796 35.8431L42.7302 36.4812L39.9529 30.0313ZM32.0218 26.0775L38.3386 25.4135L34.3339 15.6503L33.9539 15.6903L32.0218 26.0775Z" fill="white"></path><path d="M45.5005 4.44835C45.7285 4.38241 46.1292 4.27644 46.7003 4.12338C47.2714 3.97267 47.9231 3.8149 48.6531 3.65241C49.3831 3.48993 50.1385 3.32744 50.9215 3.16731C51.7044 3.00954 52.4045 2.87532 53.024 2.7717C55.4236 2.36667 57.4686 2.38786 59.1566 2.83528C60.8446 3.2827 62.2493 4.05509 63.3685 5.15244C64.4854 6.25215 65.3628 7.62267 66.0007 9.26399C66.6363 10.9053 67.1176 12.728 67.44 14.7343C67.7348 16.5546 67.8407 18.3655 67.7601 20.1693C67.6795 21.9731 67.2788 23.6332 66.5557 25.1498C65.8326 26.6686 64.7065 27.9826 63.1774 29.0941C61.6483 30.2056 59.578 30.9827 56.9734 31.423C56.5612 31.4937 56.0293 31.5691 55.3798 31.6515C54.7304 31.7339 54.0672 31.8116 53.3902 31.8846C52.7131 31.9576 52.0614 32.0282 51.435 32.0918C50.8086 32.1578 50.325 32.1907 49.9796 32.1954L45.5005 4.44835ZM53.9958 7.56851C53.5053 7.65093 53.0309 7.75219 52.5726 7.86993C52.1144 7.98767 51.7712 8.07951 51.5433 8.14544L54.5393 26.7087C54.6475 26.7181 54.8041 26.711 55.0137 26.6898C55.2233 26.6686 55.4374 26.6451 55.6585 26.6215C55.8796 26.598 56.0937 26.5744 56.3033 26.5532C56.5129 26.532 56.681 26.5108 56.8099 26.4873C58.3068 26.2353 59.4537 25.7502 60.2528 25.032C61.0519 24.3138 61.5953 23.4566 61.8855 22.4582C62.1757 21.4621 62.2908 20.3718 62.2332 19.1873C62.1757 18.0052 62.0513 16.8325 61.8648 15.6715C61.7036 14.6684 61.4779 13.6369 61.1854 12.5749C60.8953 11.5129 60.4646 10.5686 59.8935 9.74203C59.3224 8.91783 58.5647 8.28674 57.6206 7.84874C56.6741 7.41309 55.4674 7.3189 53.9958 7.56851Z" fill="white"></path><path d="M71.2491 8.83301C71.484 8.83772 71.8916 8.85184 72.4765 8.87304C73.0592 8.89658 73.7201 8.93426 74.4547 8.99078C75.1916 9.04729 75.9516 9.11324 76.7369 9.18859C77.5222 9.26395 78.2222 9.34165 78.8394 9.42172C81.2252 9.73256 83.155 10.3448 84.6311 11.2561C86.1073 12.1698 87.2242 13.3072 87.9772 14.6707C88.7326 16.0365 89.1839 17.586 89.3313 19.3262C89.4787 21.0641 89.4303 22.9291 89.1816 24.9236C88.956 26.7321 88.5553 28.4794 87.9795 30.1632C87.4038 31.8469 86.5633 33.3045 85.4602 34.5314C84.3548 35.7606 82.9247 36.679 81.1676 37.2889C79.4105 37.8988 77.2366 38.0354 74.6458 37.6963C74.2359 37.6421 73.7109 37.5597 73.073 37.4514C72.4351 37.3407 71.7857 37.223 71.1248 37.0982C70.4615 36.971 69.8259 36.8486 69.2157 36.7285C68.6054 36.6084 68.1356 36.5 67.8086 36.4058L71.2491 8.83301ZM78.4318 14.2491C77.9436 14.1856 77.4669 14.1432 76.9994 14.122C76.5342 14.1008 76.1842 14.089 75.9493 14.0843L73.6464 32.5345C73.7454 32.5745 73.8974 32.6145 74.1001 32.6546C74.3027 32.6946 74.5146 32.7346 74.731 32.777C74.9475 32.8194 75.1571 32.8595 75.3598 32.8995C75.5624 32.9395 75.7282 32.9678 75.8572 32.9843C77.3448 33.1774 78.5654 33.0525 79.5211 32.6028C80.4767 32.1554 81.2298 31.5007 81.7802 30.6388C82.3306 29.7793 82.7428 28.7785 83.0145 27.6411C83.2863 26.5037 83.4935 25.3593 83.6386 24.2031C83.763 23.207 83.8343 22.1638 83.8528 21.0735C83.8712 19.9832 83.7238 18.9635 83.4129 18.0169C83.102 17.0702 82.5585 16.2531 81.7825 15.5655C81.011 14.8802 79.8941 14.4399 78.4318 14.2491Z" fill="white"></path><path d="M92.0714 19.1354L82.5029 0H89.4024L95.1181 12.5113H95.3323L101.175 0H107.397L97.8701 19.0907V63.2133H92.0714V19.1354Z" fill="white"></path><path d="M28.5879 39.6956H47.3863V44.9775H34.3889V52.4659H46.4536V57.7478H34.3889V70H28.5879V39.6956Z" fill="#8E4F9F"></path><path d="M50.5183 33.9238C51.1493 33.872 51.8241 33.8319 52.5495 33.8037C53.2726 33.7754 53.9934 33.766 54.7142 33.7778C55.4327 33.7896 56.1328 33.8155 56.8075 33.8508C57.4846 33.8885 58.1063 33.9309 58.6728 33.985C59.9924 34.1098 61.282 34.3641 62.5394 34.748C63.7968 35.1318 64.9021 35.6876 65.8555 36.4176C66.8089 37.1476 67.5413 38.0777 68.0502 39.2128C68.5591 40.3454 68.741 41.7112 68.596 43.3102C68.4877 44.4947 68.2805 45.512 67.9742 46.3597C67.6656 47.2074 67.281 47.9421 66.8158 48.5638C66.3507 49.1879 65.8072 49.713 65.1854 50.1416C64.5613 50.5702 63.8958 50.9446 63.1865 51.2672L68.8769 64.5697L62.4864 63.9645L57.8093 52.0914L54.4931 51.7782L53.466 63.112L47.9253 62.5869L50.5183 33.9238ZM58.6176 39.0715C58.0511 39.0173 57.4892 38.9796 56.9342 38.9537C56.3792 38.9302 55.9485 38.9443 55.6446 38.9985L54.8846 47.3958L57.0677 47.6031C58.6038 47.7491 59.8911 47.5089 60.9274 46.8825C61.9614 46.2584 62.5555 45.1187 62.7052 43.4632C62.818 42.2222 62.5279 41.2144 61.837 40.4396C61.1485 39.6649 60.0753 39.2104 58.6176 39.0715Z" fill="#8E4F9F"></path><path d="M77.4896 56.8459L69.4434 40.7552H75.2466L80.0527 51.2767H80.2324L85.1444 40.7552H90.3789L82.3671 56.8106V63.2134H77.4896V56.8459Z" fill="#8E4F9F"></path></svg>